#!OML:ASF H:\ManfredETheater\Project 1\Capture day 1\Session 1\subject.ASF
:FULLY-SPECIFIED
:DEGREES
113
root -4.40756 14.107 -20.7854 -12.7493 40.6899 -21.8631
lowerback 39.3377 -2.24922 3.48419
upperback 8.37226 -0.704853 1.89342
thorax -9.815 -0.220119 0.474645
lowerneck -10.4307 -9.75598 -10.3829
upperneck 3.79229 -12.8584 14.7334
head 4.50455 -5.91632 5.18371
rclavicle 5.24792e-014 -5.56597e-014
rhumerus -39.1721 1.03917 -77.1484
rradius 99.0581
rwrist 4.96823
rhand -25.8589 -14.3589
rfingers 7.12502
rthumb 0.682038 -44.3376
lclavicle 5.24792e-014 -5.56597e-014
lhumerus -32.3531 -20.2976 92.1942
lradius 94.7437
lwrist -17.0584
lhand -22.8335 7.94846
lfingers 7.12502
lthumb 3.60392 37.8977
rfemur -63.2943 -24.5575 28.4528
rtibia 92.1218
rfoot -8.35463 -13.3778
rtoes -16.7474
lfemur -65.4746 8.2638 -23.1342
ltibia 84.1446
lfoot -15.2351 -5.47939
ltoes 34.9829
114
root -4.43201 14.0317 -20.6145 -12.8314 41.4877 -22.0019
lowerback 39.9492 -2.35429 3.3419
upperback 8.45541 -0.827799 1.97909
thorax -9.92083 -0.268231 0.698804
lowerneck -10.3894 -9.85756 -10.452
upperneck 3.42335 -12.9864 15.0948
head 4.43587 -5.97702 5.29814
rclavicle -1.27222e-014 7.15625e-014
rhumerus -39.621 0.857566 -77.2902
rradius 100.068
rwrist 5.47463
rhand -25.4548 -14.5542
rfingers 7.12502
rthumb 1.07234 -44.5312
lclavicle -1.27222e-014 7.15625e-014
lhumerus -32.5993 -20.452 92.478
lradius 95.2405
lwrist -17.5635
lhand -22.8148 8.04242
lfingers 7.12502
lthumb 3.62199 37.9914
rfemur -63.6167 -24.3768 26.8801
rtibia 90.6359
rfoot -8.67435 -13.5829
rtoes -17.1169
lfemur -65.7838 7.94495 -22.9658
ltibia 85.2476
lfoot -16.4996 -5.42483
ltoes 35.3902
115
root -4.45749 13.9581 -20.4467 -12.8892 42.2659 -22.1615
lowerback 40.566 -2.44734 3.2191
upperback 8.55246 -0.9266 2.07277
thorax -10.0077 -0.304958 0.912182
lowerneck -10.3499 -9.96968 -10.5097
upperneck 2.98628 -13.1235 15.484
head 4.35072 -6.04366 5.41915
rclavicle 5.24792e-014 -7.63333e-014
rhumerus -40.0212 0.600287 -77.408
rradius 101.028
rwrist 5.9606
rhand -25.0789 -14.597
rfingers 7.12502
rthumb 1.43537 -44.5719
lclavicle 5.24792e-014 -7.63333e-014
lhumerus -32.8452 -20.6061 92.7348
lradius 95.7719
lwrist -18.0668
lhand -23.0412 7.97753
lfingers 7.12502
lthumb 3.40331 37.9301
rfemur -63.8161 -24.0907 25.2653
rtibia 88.9012
rfoot -8.93258 -13.4361
rtoes -18.1368
lfemur -66.2207 7.64704 -22.7358
ltibia 86.4204
lfoot -17.5683 -5.57592
ltoes 35.5602
116
root -4.48331 13.8863 -20.2819 -12.9432 43.0009 -22.365
lowerback 41.1847 -2.53188 3.13691
upperback 8.66199 -0.996927 2.17469
thorax -10.0763 -0.328932 1.10195
lowerneck -10.3035 -10.0892 -10.5628
upperneck 2.49268 -13.2651 15.8917
head 4.25047 -6.11477 5.54576
rclavicle -2.8625e-014 -1.27222e-014
rhumerus -40.38 0.272025 -77.499
rradius 101.942
rwrist 6.40294
rhand -24.7449 -14.4989
rfingers 7.12502
rthumb 1.75791 -44.4714
lclavicle -2.8625e-014 -1.27222e-014
lhumerus -33.0832 -20.7556 92.9545
lradius 96.3281
lwrist -18.5946
lhand -23.4882 7.76705
lfingers 7.12502
lthumb 2.97161 37.7261
rfemur -63.8896 -23.7013 23.6492
rtibia 86.9422
rfoot -9.15162 -13.0191
rtoes -19.6494
lfemur -66.765 7.42008 -22.4454
ltibia 87.648
lfoot -18.4694 -5.89069
ltoes 35.565
117
root -4.50897 13.8163 -20.1201 -13.01 43.6792 -22.623
lowerback 41.803 -2.60397 3.11063
upperback 8.78155 -1.02771 2.28105
thorax -10.1291 -0.335517 1.25117
lowerneck -10.2335 -10.2153 -10.5921
upperneck 1.9481 -13.4122 16.3001
head 4.13165 -6.19238 5.67008
rclavicle 3.65764e-014 5.24792e-014
rhumerus -40.713 -0.147404 -77.5581
rradius 102.818
rwrist 6.76229
rhand -24.4747 -14.2903
rfingers 7.12502
rthumb 2.01891 -44.2605
lclavicle 3.65764e-014 5.24792e-014
lhumerus -33.3119 -20.9233 93.1266
lradius 96.9065
lwrist -19.1483
lhand -24.0963 7.41282
lfingers 7.12502
lthumb 2.38439 37.3792
rfemur -63.8362 -23.222 22.0614
rtibia 84.792
rfoot -9.34569 -12.4248
rtoes -21.5008
lfemur -67.3804 7.30396 -22.1055
ltibia 88.8964
lfoot -19.2685 -6.32459
ltoes 35.4252
118
root -4.53435 13.7483 -19.9612 -13.086 44.2989 -22.9225
lowerback 42.4157 -2.66321 3.12601
upperback 8.91029 -1.02421 2.39113
thorax -10.1657 -0.327105 1.36826
lowerneck -10.1388 -10.3459 -10.6111
upperneck 1.36703 -13.561 16.702
head 3.99824 -6.27489 5.79241
rclavicle -7.15625e-014 -3.18055e-015
rhumerus -41.0235 -0.635352 -77.5861
rradius 103.654
rwrist 7.02985
rhand -24.3061 -14.0323
rfingers 7.12502
rthumb 2.18169 -44.0009
lclavicle -7.15625e-014 -3.18055e-015
lhumerus -33.5221 -21.0963 93.2442
lradius 97.5063
lwrist -19.7221
lhand -24.8195 6.96558
lfingers 7.12502
lthumb 1.6859 36.9387
rfemur -63.6708 -22.6715 20.5108
rtibia 82.4952
rfoot -9.52481 -11.72
rtoes -23.4458
lfemur -68.0322 7.31316 -21.7342
ltibia 90.1335
lfoot -20.0082 -6.87534
ltoes 35.2456
119
root -4.55957 13.6818 -19.8046 -13.1532 44.8627 -23.241
lowerback 43.0084 -2.70473 3.16683
upperback 9.0468 -0.988603 2.50106
thorax -10.1838 -0.304609 1.45788
lowerneck -10.0173 -10.4791 -10.6215
upperneck 0.761391 -13.7094 17.0897
head 3.85268 -6.36149 5.91094
rclavicle -7.95139e-015 -4.77083e-015
rhumerus -41.3139 -1.18185 -77.5774
rradius 104.45
rwrist 7.17164
rhand -24.24 -13.7812
rfingers 7.12502
rthumb 2.24555 -43.7492
lclavicle -7.95139e-015 -4.77083e-015
lhumerus -33.706 -21.2775 93.3011
lradius 98.1286
lwrist -20.2869
lhand -25.6019 6.47064
lfingers 7.12502
lthumb 0.930286 36.4484
rfemur -63.424 -22.0704 19.0004
rtibia 80.1041
rfoot -9.68114 -10.9596
rtoes -25.3222
lfemur -68.6967 7.44343 -21.3493
ltibia 91.3332
lfoot -20.7393 -7.52417
ltoes 35.1103
